<svg
  xmlns="http://www.w3.org/2000/svg"
  width="50"
  height="50"
  viewBox="0 0 50 50"
  fill="none"
  stroke="#ffffff"
  stroke-width="2"
  stroke-linecap="round"
  stroke-linejoin="round"
>
  <circle cx="25" cy="25" r="22" stroke="none" />
  <circle cx="25" cy="25" r="20" fill="none" />
  <path d="M27 28C27 28.5304 26.7893 29.0391 26.4142 29.4142C26.0391 29.7893 25.5304 30 25 30C24.4696 30 23.9609 29.7893 23.5858 29.4142C23.2107 29.0391 23 28.5304 23 28C23 27.4696 23.2107 26.9609 23.5858 26.5858C23.9609 26.2107 24.4696 26 25 26C25.5304 26 26.0391 26.2107 26.4142 26.5858C26.7893 26.9609 27 27.4696 27 28Z" />
  <path d="M35 22C35 23.1046 34.6839 24.1569 34.1213 24.9497C33.5587 25.7426 32.8009 26.2678 32 26.4641V28C32 28.5304 31.7893 29.0391 31.4142 29.4142C31.0391 29.7893 30.5304 30 30 30C29.4696 30 28.9609 29.7893 28.5858 29.4142C28.2107 29.0391 28 28.5304 28 28V26.4641C27.1991 26.2678 26.4413 25.7426 25.8787 24.9497C25.3161 24.1569 25 23.1046 25 22" />
  <path d="M15 22C15 23.1046 14.6839 24.1569 14.1213 24.9497C13.5587 25.7426 12.8009 26.2678 12 26.4641V28C12 28.5304 11.7893 29.0391 11.4142 29.4142C11.0391 29.7893 10.5304 30 10 30C9.46957 30 8.96086 29.7893 8.58579 29.4142C8.21071 29.0391 8 28.5304 8 28V26.4641C7.19911 26.2678 6.44129 25.7426 5.87868 24.9497C5.31607 24.1569 5 23.1046 5 22" />
  <path d="M18.0651 18.7716C18.0153 18.2777 17.7316 17.8223 17.2761 17.6241C16.8206 17.4258 16.3099 17.5184 15.9497 17.8534C15.5894 18.1884 15.429 18.7245 15.5359 19.2473C15.6428 19.7702 16.0011 20.2102 16.4997 20.4641C17.0261 20.7335 17.6251 20.7722 18.1449 20.5703C18.6648 20.3684 19.0637 19.9485 19.2619 19.4286C19.46 18.9087 19.4415 18.3182 19.2121 17.8388C18.9826 17.3594 18.5609 17.0385 18.0651 16.8885C17.5693 16.7384 17.0352 16.7738 16.5492 16.9859C16.0633 17.1979 15.6641 17.5741 15.4248 18.0494C15.1855 18.5247 15.1272 19.0673 15.2622 19.5873C15.3971 20.1074 15.7143 20.5649 16.1465 20.8811C16.5787 21.1974 17.0967 21.3547 17.6266 21.3186C18.1566 21.2824 18.6709 21.055 19.0705 20.6855C19.4701 20.316 19.7342 19.8277 19.8253 19.3134C19.9165 18.7991 19.8307 18.2823 19.5779 17.8157C19.3252 17.3492 18.917 16.9659 18.4299 16.7349C17.9428 16.504 17.4007 16.4373 16.887 16.5484C16.3733 16.6596 15.9193 16.9445 15.6248 17.3572" />
</svg>
